<?xml version="1.0" encoding="UTF-8" standalone="no" ?>
<!DOCTYPE svg PUBLIC "-//W3C//DTD SVG 1.1//EN" "http://www.w3.org/Graphics/SVG/1.1/DTD/svg11.dtd">
<svg xmlns="http://www.w3.org/2000/svg" xmlns:xlink="http://www.w3.org/1999/xlink" version="1.1" width="1080" height="1080" viewBox="0 0 1080 1080" xml:space="preserve">
<desc>Created with Fabric.js 5.2.4</desc>
<defs>
</defs>
<g transform="matrix(1 0 0 1 540 540)" id="773ab747-3921-4d04-a4ed-fd0fd17ca4ac"  >
<rect style="stroke: none; stroke-width: 1; stroke-dasharray: none; stroke-linecap: butt; stroke-dashoffset: 0; stroke-linejoin: miter; stroke-miterlimit: 4; fill: rgb(255,255,255); fill-rule: nonzero; opacity: 1; visibility: hidden;" vector-effect="non-scaling-stroke"  x="-540" y="-540" rx="0" ry="0" width="1080" height="1080" />
</g>
<g transform="matrix(1 0 0 1 540 540)" id="52ca8689-8133-40f2-8d86-343bc5561043"  >
</g>
<g transform="matrix(1 0 0 1 540 540)" id="8f5424aa-93c4-4980-bbcb-27c1d78dafd4"  >
<path style="stroke: rgb(0,0,0); stroke-width: 0; stroke-dasharray: none; stroke-linecap: butt; stroke-dashoffset: 0; stroke-linejoin: miter; stroke-miterlimit: 4; fill: rgb(255,251,251); fill-rule: nonzero; opacity: 1;" vector-effect="non-scaling-stroke"  transform=" translate(-256, -256)" d="M 377.9 105.9 L 500.7 228.7 C 507.9 235.89999999999998 512 245.79999999999998 512 256 C 512 266.20000000000005 507.9 276.1 500.7 283.3 L 377.9 406.1 C 371.5 412.5 362.9 416 353.9 416 C 335.2 416 320 400.8 320 382.1 L 320 320 L 192 320 C 174.3 320 160 305.7 160 288 L 160 224 C 160 206.3 174.3 192 192 192 L 320 192 L 320 129.9 C 320 111.2 335.2 96 353.9 96 C 362.9 96 371.5 99.6 377.9 105.9 z M 160 96 L 96 96 C 78.3 96 64 110.3 64 128 L 64 384 C 64 401.7 78.3 416 96 416 L 160 416 C 177.7 416 192 430.3 192 448 C 192 465.7 177.7 480 160 480 L 96 480 C 43 480 0 437 0 384 L 0 128 C 0 75 43 32 96 32 L 160 32 C 177.7 32 192 46.3 192 64 C 192 81.7 177.7 96 160 96 z" stroke-linecap="round" />
</g>
</svg>