<?xml version="1.0" encoding="UTF-8" standalone="no"?>
<!-- Created with Inkscape (http://www.inkscape.org/) -->

<svg
   width="30.212503mm"
   height="10.914806mm"
   viewBox="0 0 30.212503 10.914806"
   version="1.1"
   id="svg1"
   xml:space="preserve"
   xmlns:inkscape="http://www.inkscape.org/namespaces/inkscape"
   xmlns:sodipodi="http://sodipodi.sourceforge.net/DTD/sodipodi-0.dtd"
   xmlns="http://www.w3.org/2000/svg"
   xmlns:svg="http://www.w3.org/2000/svg"><sodipodi:namedview
     id="namedview1"
     pagecolor="#ffffff"
     bordercolor="#000000"
     borderopacity="0.25"
     inkscape:showpageshadow="2"
     inkscape:pageopacity="0.0"
     inkscape:pagecheckerboard="0"
     inkscape:deskcolor="#d1d1d1"
     inkscape:document-units="mm" /><defs
     id="defs1" /><g
     inkscape:label="Layer 1"
     inkscape:groupmode="layer"
     id="layer1"
     transform="translate(-39.53196,-78.396024)"><g
       id="g55"
       style="fill:#f9f9f9"
       inkscape:export-filename="g55.png"
       inkscape:export-xdpi="96"
       inkscape:export-ydpi="96"><path
         style="fill:#f9f9f9"
         d="m 45.730892,83.507443 c 0.117778,-0.06426 0.190578,-0.139205 0.240698,-0.247801 0.0435,-0.09425 0.04624,-0.19969 0.04624,-1.778319 0,-1.569713 -0.0029,-1.684619 -0.04561,-1.778535 -0.07995,-0.175996 -0.28407,-0.312233 -0.468547,-0.31273 -0.197724,-5.32e-4 -0.434158,0.180764 -0.485787,0.372499 -0.01825,0.06778 -0.02473,0.634668 -0.02013,1.760954 0.0067,1.62918 0.0078,1.66291 0.05911,1.761178 0.02878,0.0551 0.09971,0.133659 0.157622,0.17457 0.08711,0.06154 0.134309,0.07566 0.273284,0.08178 0.119687,0.0053 0.18959,-0.0044 0.243126,-0.0336 z"
         id="path49" /><path
         style="fill:#f9f9f9"
         d="m 49.334187,89.271745 c 0.432271,-0.1541 0.455282,-0.775945 0.03521,-0.951463 -0.0711,-0.02971 -0.189949,-0.03876 -0.508651,-0.03876 h -0.415871 l 0.278051,-0.26644 c 0.445022,-0.426437 0.729991,-0.80929 0.991419,-1.33196 0.296447,-0.592681 0.487394,-1.377176 0.487394,-2.002428 0,-0.279249 -0.123384,-0.475106 -0.348131,-0.552617 -0.06383,-0.02201 -1.15459,-0.02923 -4.358135,-0.02881 -4.078923,5.25e-4 -4.277556,0.0026 -4.373398,0.04616 -0.145383,0.06605 -0.25282,0.20037 -0.288777,0.361045 -0.03015,0.134737 -0.0309,0.135548 -0.155016,0.167357 -0.385217,0.09873 -0.799026,0.439328 -0.978869,0.805692 -0.300344,0.61184 -0.191054,1.298766 0.282796,1.777467 0.221946,0.224219 0.439452,0.353123 0.714566,0.423485 0.165536,0.04234 0.280587,0.05021 0.748868,0.05125 l 0.553284,0.0012 0.286085,0.274284 0.286086,0.274284 h -0.426165 c -0.397846,0 -0.4335,0.0039 -0.536553,0.0583 -0.203722,0.107593 -0.310122,0.361955 -0.248219,0.593396 0.03731,0.139488 0.198075,0.30148 0.341992,0.344598 0.159529,0.0478 7.497305,0.04197 7.632035,-0.0061 z m -4.682406,-1.098387 c -1.170026,-0.298244 -2.091511,-1.100697 -2.551754,-2.222134 -0.06955,-0.169457 -0.213812,-0.693858 -0.213812,-0.777198 0,-0.04761 0.05889,-0.0484 3.619256,-0.0484 h 3.619256 v 0.05891 c 0,0.10387 -0.126098,0.563078 -0.21633,0.787802 -0.194473,0.484338 -0.480456,0.902113 -0.880133,1.285733 -0.501006,0.480877 -1.125216,0.806678 -1.820373,0.950128 -0.190026,0.03921 -0.31331,0.04536 -0.765037,0.03814 -0.478917,-0.0077 -0.566453,-0.01573 -0.791073,-0.07299 z M 40.87005,86.656162 c -0.314679,-0.142924 -0.407133,-0.56111 -0.180995,-0.818668 0.127584,-0.145309 0.27043,-0.19657 0.27043,-0.09704 0,0.06363 0.153521,0.517244 0.251558,0.743279 l 0.09535,0.219842 -0.167192,-5.5e-4 C 41.031055,86.702669 40.936,86.686115 40.87005,86.656165 Z"
         id="path48" /><text
         xml:space="preserve"
         style="font-style:italic;font-weight:bold;font-size:7.05556px;font-family:Montserrat;-inkscape-font-specification:'Montserrat Bold Italic';text-align:center;letter-spacing:-0.03175px;text-anchor:middle;fill:#f9f9f9;stroke:none;stroke-width:1;stroke-linecap:round;stroke-linejoin:round;paint-order:markers stroke fill"
         x="59.258141"
         y="83.419579"
         id="text2"><tspan
           sodipodi:role="line"
           id="tspan2"
           style="fill:#f9f9f9;stroke:none;stroke-width:1"
           x="59.242264"
           y="83.419579">SPOT</tspan></text><g
         id="g47"
         transform="matrix(0.79993025,0,0,0.79993025,8.0171468,12.548259)"
         style="fill:#f9f9f9"><g
           id="g43"
           transform="matrix(0.15355673,0,0,0.13496168,47.166168,78.591133)"
           style="fill:#f9f9f9"><path
             style="fill:#f9f9f9"
             d="m 91.329247,122.26566 c 0,-0.0209 0.30251,-1.53791 0.67224,-3.37121 0.74383,-3.68826 0.90234,-4.93815 0.8178,-6.44858 -0.18604,-3.32373 -1.22014,-5.74225 -3.53311,-8.26315 -2.29892,-2.50558 -3.55701,-4.355759 -4.5123,-6.635899 -1.85336,-4.42369 -2.12296,-9.29113 -0.85551,-15.44573 0.51886,-2.51953 0.96047,-3.06766 2.47475,-3.07172 1.92264,-0.005 4.54314,0.89458 6.49899,2.23137 1.50205,1.02663 2.75675,2.38508 4.15426,4.49777 2.60791,3.94252 4.238123,8.05037 4.872043,12.27667 0.22927,1.5286 0.31373,4.709129 0.1678,6.319419 -0.32617,3.59922 -1.55415,7.99017 -3.100803,11.08766 -1.35361,2.71088 -3.66656,4.99792 -6.38627,6.31475 -0.87938,0.42578 -1.26989,0.58219 -1.26989,0.50865 z"
             id="path43" /><path
             style="fill:#f9f9f9"
             d="m 82.269917,123.68598 c -3.60076,-0.56933 -6.47952,-2.72976 -8.77951,-6.58876 -2.39045,-4.01078 -3.93179,-8.36268 -4.56227,-12.88138 -0.21287,-1.52564 -0.25987,-5.467519 -0.085,-7.126089 0.23874,-2.26372 0.60151,-4.08346 1.28352,-6.43825 0.96046,-3.3162 2.02898,-5.31317 3.8022,-7.10599 1.39339,-1.40879 2.87949,-2.31852 4.81367,-2.94673 0.91528,-0.29728 2.38859,-0.62158 2.46712,-0.54306 0.079,0.079 -0.53154,4.07148 -0.89791,5.87212 -0.43282,2.12721 -0.57606,3.32208 -0.57853,4.826 -0.005,2.89497 0.63991,5.65532 1.9373,8.29527 0.85442,1.738579 1.63887,2.927619 3.29696,4.997399 3.23008,4.03206 4.68954,8.47924 4.24132,12.92386 -0.18569,1.84133 -0.86587,4.4566 -1.39301,5.3561 -0.45435,0.77529 -1.17752,1.23978 -2.18474,1.40325 -0.72047,0.11693 -2.49072,0.0939 -3.36116,-0.0437 z"
             id="path42" /></g><path
           style="font-size:7.05556px;font-family:'Schadow BT';-inkscape-font-specification:'Schadow BT';text-align:center;letter-spacing:-0.03175px;text-anchor:middle;fill:#f9f9f9;stroke-linecap:round;stroke-linejoin:round;paint-order:markers stroke fill"
           d="m 73.688708,94.506018 v -1.601971 h 0.52021 v 1.92581 h -3.648359 v -0.323839 h 0.523655 v -4.395945 h -0.523655 v -0.323839 h 3.493329 v 1.643311 h -0.492649 v -1.319472 h -1.863797 v 1.877578 h 1.333252 v 0.392741 h -1.333252 v 2.125626 z"
           id="path47" /><path
           style="font-size:7.05556px;font-family:'Schadow BT';-inkscape-font-specification:'Schadow BT';text-align:center;letter-spacing:-0.03175px;text-anchor:middle;fill:#f9f9f9;stroke-linecap:round;stroke-linejoin:round;paint-order:markers stroke fill"
           d="m 68.71473,94.506018 v 0.323839 h -1.743219 v -0.323839 h 0.523655 v -4.395945 h -0.523655 v -0.323839 h 3.255617 v 1.636421 h -0.502984 v -1.312582 h -1.615751 v 1.877578 h 1.333253 v 0.423747 h -1.333253 v 2.09462 z"
           id="path46" /><path
           style="font-size:7.05556px;font-family:'Schadow BT';-inkscape-font-specification:'Schadow BT';text-align:center;letter-spacing:-0.03175px;text-anchor:middle;fill:#f9f9f9;stroke-linecap:round;stroke-linejoin:round;paint-order:markers stroke fill"
           d="m 65.125683,94.506018 v 0.323839 h -1.743219 v -0.323839 h 0.523654 v -4.395945 h -0.523654 v -0.323839 h 3.255617 v 1.636421 h -0.502984 v -1.312582 h -1.615751 v 1.877578 h 1.333253 v 0.423747 h -1.333253 v 2.09462 z"
           id="path45" /><path
           style="font-size:7.05556px;font-family:'Schadow BT';-inkscape-font-specification:'Schadow BT';text-align:center;letter-spacing:-0.03175px;text-anchor:middle;fill:#f9f9f9;stroke-linecap:round;stroke-linejoin:round;paint-order:markers stroke fill"
           d="m 56.630871,90.285773 v -0.499539 h 0.471979 v 1.757 h -0.471979 q 0,-0.02756 0.0034,-0.07579 0.0034,-0.04823 0.0034,-0.07235 0,-0.682129 -0.323839,-1.050754 -0.320394,-0.368626 -0.909506,-0.368626 -0.72347,0 -1.026639,0.530545 -0.299723,0.5271 -0.299723,1.846573 0,1.202339 0.313504,1.736329 0.316949,0.530545 1.019749,0.530545 0.70969,0 1.040419,-0.482314 0.334175,-0.485759 0.334175,-1.515843 h 0.437527 v 0.04823 q 0,1.119656 -0.465088,1.698433 -0.465088,0.575331 -1.367704,0.575331 -1.06798,0 -1.526178,-0.616672 -0.458198,-0.620118 -0.458198,-2.09462 0,-1.347033 0.444417,-1.96026 0.447863,-0.613228 1.419381,-0.613228 0.475423,0 0.816488,0.158475 0.34451,0.155029 0.544325,0.468533 z"
           id="text43" /></g><g
         id="g54"
         transform="translate(8.8757498,-10.603907)"
         style="fill:#f9f9f9"><path
           style="fill:#f9f9f9"
           d="m 38.93416,93.053 c 0.110011,-0.058 0.186504,-0.134101 0.240382,-0.23916 0.04322,-0.08428 0.04766,-0.153238 0.04766,-0.741202 0,-0.630376 -0.0016,-0.651321 -0.0583,-0.758662 -0.0688,-0.130265 -0.238001,-0.245621 -0.390222,-0.266038 -0.19406,-0.02603 -0.439518,0.121104 -0.51948,0.311388 -0.02542,0.06048 -0.03387,0.237275 -0.03387,0.708375 0,0.671057 0.01075,0.741743 0.132691,0.872471 0.136793,0.146649 0.414657,0.200596 0.581142,0.112828 z"
           id="path54" /><path
           style="fill:#f9f9f9"
           d="m 34.673957,93.08146 c 0.163696,-0.04156 0.305713,-0.183962 0.356005,-0.35696 0.03097,-0.106519 0.03686,-0.246128 0.03013,-0.71395 -0.0078,-0.545412 -0.01184,-0.588063 -0.06439,-0.686538 -0.0892,-0.167155 -0.282317,-0.283986 -0.467243,-0.282677 -0.185513,0.0013 -0.41054,0.179087 -0.466417,0.368475 -0.01819,0.06167 -0.02509,0.312665 -0.01991,0.724681 l 0.0079,0.630341 0.07549,0.107337 c 0.132409,0.188276 0.331686,0.264324 0.548427,0.209291 z"
           id="path53" /></g><path
         style="fill:#f9f9f9;stroke-width:0.709549"
         d="m 45.730892,82.493902 c 0.117778,-0.03235 0.190578,-0.07008 0.240698,-0.124758 0.0435,-0.04745 0.04624,-0.100536 0.04624,-0.895311 0,-0.790287 -0.0029,-0.848137 -0.04561,-0.89542 -0.07995,-0.08861 -0.28407,-0.157197 -0.468547,-0.157447 -0.197724,-2.68e-4 -0.434158,0.09101 -0.485787,0.187538 -0.01825,0.03412 -0.02473,0.31953 -0.02013,0.886569 0.0067,0.820226 0.0078,0.837207 0.05911,0.886681 0.02878,0.02774 0.09971,0.06729 0.157622,0.08789 0.08711,0.03098 0.134309,0.03809 0.273284,0.04117 0.119687,0.0027 0.18959,-0.0022 0.243126,-0.01692 z"
         id="path50" /></g></g></svg>
